<svg width="1176" height="477" viewBox="0 0 1176 477" fill="none" xmlns="http://www.w3.org/2000/svg">
<path d="M1137.66 41.3907V41.8907H1138.16H1149.1C1163.68 41.8907 1175.5 53.7358 1175.5 68.3499V409.483C1175.5 424.097 1163.68 435.942 1149.1 435.942H1138.16H1137.66V436.442V442.346C1137.66 460.683 1122.82 475.545 1104.53 475.545H68.0876C49.795 475.545 34.9641 460.683 34.9641 442.346V435.573V435.073H34.4641H26.8988C12.3202 435.073 0.5 423.228 0.5 408.614V67.4811C0.5 52.867 12.3202 41.0219 26.8988 41.0219H34.4641H34.9641V40.5219V33.7459C34.9641 15.4095 49.795 0.546875 68.0876 0.546875H1104.53C1122.82 0.546875 1137.66 15.4095 1137.66 33.7459V41.3907Z" fill="white" stroke="#B3B0A9"/>
</svg>
