<svg width="330" height="207" viewBox="0 0 330 207" fill="none" xmlns="http://www.w3.org/2000/svg">
<path d="M298.151 34.708V35.208H298.651H307.716C319.744 35.208 329.492 44.923 329.492 56.9033V151.65C329.492 163.63 319.744 173.345 307.716 173.345H298.651H298.151V173.845V178.706C298.151 193.751 285.91 205.95 270.806 205.95H56.3962C41.2922 205.95 29.051 193.751 29.051 178.706V173.13V172.63H28.551H22.2859C10.2576 172.63 0.509766 162.915 0.509766 150.934V56.1881C0.509766 44.2078 10.2575 34.4927 22.2859 34.4927H28.551H29.051V33.9927V28.4141C29.051 13.3693 41.2922 1.16992 56.3962 1.16992H270.806C285.91 1.16992 298.151 13.3693 298.151 28.4141V34.708Z" fill="white" stroke="#B3B0A9"/>
</svg>
