<svg width="116" height="30" viewBox="0 0 116 30" fill="none" xmlns="http://www.w3.org/2000/svg">
<path d="M28.0303 3.43164H92.3556" stroke="#A76F25" stroke-width="0.5" stroke-linecap="round"/>
<path d="M10.487 0.507812H109.899" stroke="#E2B579" stroke-width="0.5" stroke-linecap="round"/>
<path d="M99.6653 10.0099C97.4724 13.6648 99.3183 16.5955 102.589 16.5894C104.782 16.5852 110.63 10.0099 102.589 5.62413C96.9533 2.55006 85.669 7.85519 78.8634 12.0023C77.1508 13.0459 75.2018 13.6648 73.1962 13.6648H46.2485C44.3743 13.6648 42.5448 13.128 40.9242 12.1865C32.5241 7.30647 18.5753 0.863713 14.8727 5.62413C11.9198 9.42077 12.8468 12.4313 14.4159 14.2714C15.4819 15.5216 17.2993 16.0789 18.7503 15.3083C20.1172 14.5824 21.1024 13.0269 19.9896 10.0099" stroke="#A76F25" stroke-width="0.5" stroke-linecap="round"/>
<path d="M102.589 3.68164C102.451 3.68164 102.339 3.56971 102.339 3.43164C102.339 3.29357 102.451 3.18164 102.589 3.18164V3.68164ZM102.589 3.18164H112.823V3.68164H102.589V3.18164Z" fill="#A76F25"/>
<path d="M13.4109 3.18164C13.549 3.18164 13.6609 3.29357 13.6609 3.43164C13.6609 3.56971 13.549 3.68164 13.4109 3.68164V3.18164ZM3.17731 3.18164H13.4109V3.68164H3.17731V3.18164Z" fill="#A76F25"/>
<circle cx="2.19291" cy="2.19291" r="1.94291" transform="matrix(1 0 0 -1 111.361 5.62451)" fill="white" stroke="#A76F25" stroke-width="0.5"/>
<circle cx="2.19291" cy="2.19291" r="1.94291" transform="matrix(1 0 0 -1 0.253418 5.62451)" fill="white" stroke="#A76F25" stroke-width="0.5"/>
<circle cx="2.92388" cy="2.92388" r="2.67388" transform="matrix(1 0 0 -1 55.0761 11.4722)" fill="white" stroke="#A76F25" stroke-width="0.5"/>
<path d="M71.1575 18.0513H74.5204C75.6557 18.0513 76.7494 17.6581 77.6774 17.004C81.8182 14.0849 89.0278 10.2222 91.6246 10.7416" stroke="#E2B579" stroke-width="0.5" stroke-linecap="round" stroke-dasharray="1 1"/>
<path d="M46.3045 18.0513H42.9416C41.8063 18.0513 40.7126 17.6581 39.7846 17.004C35.6438 14.0849 28.4342 10.2222 25.8374 10.7416" stroke="#E2B579" stroke-width="0.5" stroke-linecap="round" stroke-dasharray="1 1"/>
<path d="M62.3858 8.54834H69.8329C70.438 8.54834 71.0381 8.43849 71.604 8.22414L78.4671 5.62446" stroke="#E2B579" stroke-width="0.5" stroke-linecap="round" stroke-dasharray="1 1"/>
<path d="M52.8104 8.54834H45.3634C44.7582 8.54834 44.1581 8.43849 43.5922 8.22414L36.7291 5.62446" stroke="#E2B579" stroke-width="0.5" stroke-linecap="round" stroke-dasharray="1 1"/>
<path d="M65.9451 22.4517C70.5979 18.6969 63.1767 15.1516 58.8763 13.8126C58.7371 13.7692 58.6032 13.8851 58.6247 14.0293C59.3511 18.8911 61.2533 26.2381 65.9451 22.4517Z" fill="white" stroke="#A76F25" stroke-width="0.5"/>
<path d="M49.8589 22.4366C45.2054 18.6812 53.6224 15.0973 57.9675 13.757C58.1069 13.714 58.2402 13.8299 58.2174 13.974C57.4496 18.8374 54.5509 26.2231 49.8589 22.4366Z" fill="white" stroke="#A76F25" stroke-width="0.5"/>
<path d="M58.2769 29.0154C64.759 29.0154 61.1456 18.6573 58.4422 13.97C58.3641 13.8346 58.1716 13.8407 58.1006 13.9799C55.3949 19.2823 51.7399 29.0154 58.2769 29.0154Z" fill="white" stroke="#A76F25" stroke-width="0.5"/>
</svg>
