<svg width="116" height="30" viewBox="0 0 116 30" fill="none" xmlns="http://www.w3.org/2000/svg">
<path d="M28.0303 26.584H92.3556" stroke="#A76F25" stroke-width="0.5" stroke-linecap="round"/>
<path d="M10.487 29.5078H109.899" stroke="#E2B579" stroke-width="0.5" stroke-linecap="round"/>
<path d="M99.6653 20.0057C97.4724 16.3508 99.3183 13.4201 102.589 13.4263C104.782 13.4304 110.63 20.0057 102.589 24.3915C96.9533 27.4656 85.669 22.1604 78.8634 18.0133C77.1508 16.9697 75.2018 16.3508 73.1962 16.3508H46.2485C44.3743 16.3508 42.5448 16.8877 40.9242 17.8291C32.5241 22.7092 18.5753 29.1519 14.8727 24.3915C11.9198 20.5949 12.8468 17.5844 14.4159 15.7442C15.4819 14.494 17.2993 13.9367 18.7503 14.7073C20.1172 15.4332 21.1024 16.9887 19.9896 20.0057" stroke="#A76F25" stroke-width="0.5" stroke-linecap="round"/>
<path d="M102.589 26.334C102.451 26.334 102.339 26.4459 102.339 26.584C102.339 26.7221 102.451 26.834 102.589 26.834V26.334ZM102.589 26.834H112.823V26.334H102.589V26.834Z" fill="#A76F25"/>
<path d="M13.4109 26.834C13.549 26.834 13.6609 26.7221 13.6609 26.584C13.6609 26.4459 13.549 26.334 13.4109 26.334V26.834ZM3.17731 26.834H13.4109V26.334H3.17731V26.834Z" fill="#A76F25"/>
<circle cx="113.554" cy="26.584" r="1.94291" fill="white" stroke="#A76F25" stroke-width="0.5"/>
<circle cx="2.44633" cy="26.584" r="1.94291" fill="white" stroke="#A76F25" stroke-width="0.5"/>
<circle cx="58" cy="21.4673" r="2.67388" fill="white" stroke="#A76F25" stroke-width="0.5"/>
<path d="M71.1575 11.9644H74.5204C75.6557 11.9644 76.7494 12.3575 77.6774 13.0117C81.8182 15.9307 89.0278 19.7934 91.6246 19.2741" stroke="#E2B579" stroke-width="0.5" stroke-linecap="round" stroke-dasharray="1 1"/>
<path d="M46.3045 11.9644H42.9416C41.8063 11.9644 40.7126 12.3575 39.7846 13.0117C35.6438 15.9307 28.4342 19.7934 25.8374 19.2741" stroke="#E2B579" stroke-width="0.5" stroke-linecap="round" stroke-dasharray="1 1"/>
<path d="M62.3858 21.4673H69.8329C70.438 21.4673 71.0381 21.5771 71.604 21.7915L78.4671 24.3912" stroke="#E2B579" stroke-width="0.5" stroke-linecap="round" stroke-dasharray="1 1"/>
<path d="M52.8104 21.4673H45.3634C44.7582 21.4673 44.1581 21.5771 43.5922 21.7915L36.7291 24.3912" stroke="#E2B579" stroke-width="0.5" stroke-linecap="round" stroke-dasharray="1 1"/>
<path d="M65.9451 7.56389C70.5979 11.3187 63.1767 14.864 58.8763 16.2031C58.7371 16.2464 58.6032 16.1306 58.6247 15.9863C59.3511 11.1245 61.2533 3.77751 65.9451 7.56389Z" fill="white" stroke="#A76F25" stroke-width="0.5"/>
<path d="M49.8589 7.57901C45.2054 11.3344 53.6224 14.9183 57.9675 16.2586C58.1069 16.3016 58.2402 16.1857 58.2174 16.0416C57.4496 11.1782 54.5509 3.79254 49.8589 7.57901Z" fill="white" stroke="#A76F25" stroke-width="0.5"/>
<path d="M58.2769 1.00022C64.759 1.00023 61.1456 11.3583 58.4422 16.0456C58.3641 16.181 58.1716 16.175 58.1006 16.0357C55.3949 10.7333 51.7399 1.00022 58.2769 1.00022Z" fill="white" stroke="#A76F25" stroke-width="0.5"/>
</svg>
