<svg version="1.2" xmlns="http://www.w3.org/2000/svg" viewBox="0 0 336 466" width="336" height="466">
	<title>grid-card-frame-svg</title>
	<defs>
		<clipPath clipPathUnits="userSpaceOnUse" id="cp1">
			<path d="m-0.04 0h336v466h-336zm23.53 13.39h-11.27v12.39h-1.26c-5.52 0-10 4.47-10 10v396.7c0 5.52 4.48 10 10 10h1.26v11.26h11.27v1.26c0 5.52 4.47 10 10 10h268.31c5.52 0 10-4.48 10-10v-1.26h11.26v-11.26h1.26c5.52 0 10-4.48 10-10v-396.7c0-5.53-4.48-10-10-10h-1.26v-12.39h-11.26v-2.39c0-5.52-4.48-10-10-10h-268.31c-5.53 0-10 4.48-10 10z"/>
		</clipPath>
	</defs>
	<style>
		.s0 { fill: #ffffff } 
		.s1 { fill: #f0dbbc } 
	</style>
	<g>
		<path fill-rule="evenodd" class="s0" d="m23.5 11c0-5.5 4.5-10 10-10h268.3c5.5 0 10 4.5 10 10v2.4h11.3v12.4h1.2c5.5 0 10 4.5 10 10v396.7c0 5.5-4.5 10-10 10h-1.2v11.2h-11.3v1.3c0 5.5-4.5 10-10 10h-268.3c-5.5 0-10-4.5-10-10v-1.3h-11.3v-11.2h-1.2c-5.6 0-10-4.5-10-10v-396.7c0-5.5 4.4-10 10-10h1.2v-12.4h11.3z"/>
		<g id="Clip-Path" clip-path="url(#cp1)">
			<path class="s1" d="m311.8 13.4h-1v1h1zm11.3 0h1v-1h-1zm0 12.4h-1v1h1zm0 416.7v-1h-1v1zm0 11.2v1h1v-1zm-11.3 0v-1h-1v1zm-288.3 0h1v-1h-1zm-11.3 0h-1v1h1zm0-11.2h1v-1h-1zm0-416.7v1h1v-1zm0-12.4v-1h-1v1zm11.3 0v1h1v-1zm10-13.4c-6.1 0-11 4.9-11 11h2c0-5 4-9 9-9zm268.3 0h-268.3v2h268.3zm11 11c0-6.1-4.9-11-11-11v2c5 0 9 4 9 9zm0 2.4v-2.4h-2v2.4zm-1 1h11.3v-2h-11.3zm10.3-1v12.4h2v-12.4zm2.2 11.4h-1.2v2h1.2zm11 11c0-6.1-4.9-11-11-11v2c5 0 9 4 9 9zm0 396.7v-396.7h-2v396.7zm-11 11c6.1 0 11-4.9 11-11h-2c0 4.9-4 9-9 9zm-1.2 0h1.2v-2h-1.2zm-1-1v11.2h2v-11.2zm1 10.2h-11.3v2h11.3zm-10.3 2.3v-1.3h-2v1.3zm-11 11c6.1 0 11-4.9 11-11h-2c0 5-4 9-9 9zm-268.3 0h268.3v-2h-268.3zm-11-11c0 6.1 4.9 11 11 11v-2c-5 0-9-4-9-9zm0-1.3v1.3h2v-1.3zm1-1h-11.3v2h11.3zm-10.3 1v-11.2h-2v11.2zm-2.2-10.2h1.2v-2h-1.2zm-11-11c0 6.1 4.9 11 11 11v-2c-5 0-9-4.1-9-9zm0-396.7v396.7h2v-396.7zm11-11c-6.1 0-11 4.9-11 11h2c0-5 4-9 9-9zm1.2 0h-1.2v2h1.2zm1 1v-12.4h-2v12.4zm-1-11.4h11.3v-2h-11.3zm10.3-3.4v2.4h2v-2.4z"/>
		</g>
	</g>
</svg>